<svg version="1.1" id="Layer_1" xmlns="http://www.w3.org/2000/svg" xmlns:xlink="http://www.w3.org/1999/xlink" x="0px" y="0px"
	 width="100%" viewBox="0 0 500 333" enable-background="new 0 0 500 333" xml:space="preserve">
<path fill="#FFFFFF" opacity="1.000000" stroke="none" 
	d="
M311.000000,334.000000 
	C207.333344,334.000000 104.166695,334.000000 1.000028,334.000000 
	C1.000018,223.000031 1.000018,112.000053 1.000009,1.000038 
	C84.333298,1.000000 167.666595,1.000000 250.999893,1.000000 
	C334.333221,1.000000 417.666534,1.000000 500.999908,1.000000 
	C500.999939,111.999939 500.999939,222.999878 500.999969,333.999908 
	C437.833344,334.000000 374.666656,334.000000 311.000000,334.000000 
M183.920334,140.039490 
	C183.678909,132.577560 183.437485,125.115639 183.145950,116.946472 
	C181.742050,111.875732 178.210663,110.175346 173.173370,109.755638 
	C166.109894,109.167122 160.530090,110.887840 156.966980,116.664886 
	C154.154556,108.220711 147.059799,109.842766 140.774078,109.955215 
	C135.644867,110.046982 131.982651,113.580490 131.839661,118.704895 
	C131.650940,125.467697 131.934402,132.243668 131.763794,139.633591 
	C131.708481,140.075043 131.653183,140.516495 130.719269,141.095154 
	C123.905670,141.131989 117.089539,141.066895 110.279213,141.235825 
	C104.108360,141.388901 100.644409,145.161819 100.044151,151.197845 
	C99.328705,158.392136 100.880264,164.290482 107.047897,167.866104 
	C99.856033,171.401459 97.095757,184.213730 102.583038,189.898743 
	C104.146248,191.518280 106.815102,192.800354 109.043594,192.912491 
	C115.997711,193.262436 122.983734,192.978363 130.607635,193.195602 
	C130.839188,193.220428 131.070755,193.245270 131.473801,193.980682 
	C131.565445,199.417694 131.975967,204.871841 131.685104,210.288315 
	C130.990829,223.217667 136.536819,225.540924 147.544220,225.004593 
	C152.985611,224.739456 155.482056,221.055817 157.987732,217.756104 
	C160.672379,224.781754 166.480148,225.266586 172.783783,224.953247 
	C179.425323,224.623108 183.502335,221.074905 183.735840,214.535217 
	C183.966919,208.063263 183.705383,201.573700 183.839859,194.457626 
	C183.803482,194.240906 183.767105,194.024170 184.407715,193.258011 
	C191.564102,193.210159 198.723312,193.268677 205.875931,193.078629 
	C210.995361,192.942612 214.594116,189.434952 215.034698,184.359161 
	C215.235641,182.044174 215.181107,179.697052 215.099152,177.369553 
	C214.920074,172.285385 212.585617,168.880325 207.691818,167.161926 
	C213.622269,164.563156 215.570236,160.021393 215.272430,153.650772 
	C214.838715,144.372726 211.930466,141.238174 202.469925,141.192459 
	C196.313232,141.162704 190.156952,141.047028 183.920334,140.039490 
M240.834396,155.630814 
	C241.147186,153.193787 241.459976,150.756760 241.772766,148.319733 
	C244.118118,152.053116 245.392838,155.811020 247.093704,159.364990 
	C247.666290,160.561417 249.327057,161.962387 250.480225,161.953384 
	C251.653351,161.944244 253.295258,160.550217 253.888489,159.346848 
	C255.584198,155.906967 256.851685,152.255981 258.287598,148.688034 
	C258.667938,148.754913 259.048309,148.821808 259.428650,148.888687 
	C259.934021,153.454514 260.439362,158.020340 260.957245,162.699402 
	C263.018616,162.699402 264.899963,162.699402 267.174347,162.699402 
	C266.234344,153.307785 265.331451,144.287033 264.453369,135.514069 
	C259.169708,133.921890 256.483673,135.551971 255.193604,140.413666 
	C254.153519,144.333221 252.362167,148.053452 250.539291,152.815063 
	C248.657593,147.952194 246.800964,144.195633 245.768829,140.224747 
	C244.461227,135.194214 241.586212,133.966187 236.538666,135.498001 
	C235.645828,144.476334 234.735641,153.629211 233.832092,162.715363 
	C236.379288,162.715363 238.142044,162.715363 240.051239,162.715363 
	C240.302811,160.459137 240.523163,158.482864 240.834396,155.630814 
M310.712555,162.867035 
	C317.755127,159.625931 320.510651,150.625763 317.277374,141.424866 
	C314.912872,134.696182 307.805359,132.828598 295.556580,135.752075 
	C295.556580,144.743134 295.556580,153.745468 295.556580,162.957230 
	C300.583435,162.957230 305.217346,162.957230 310.712555,162.867035 
M258.757629,185.568283 
	C258.757629,182.450119 258.757629,179.331955 258.757629,175.827560 
	C256.386902,175.827560 254.510910,175.827560 252.363205,175.827560 
	C252.194214,179.579117 252.034302,183.129501 251.877594,186.608673 
	C248.111984,186.608673 244.872849,186.608673 241.138336,186.608673 
	C241.138336,182.882263 241.138336,179.464981 241.138336,175.760803 
	C238.896408,175.760803 237.163010,175.760803 235.267883,175.760803 
	C235.267883,185.190247 235.267883,194.376419 235.267883,203.575806 
	C237.361069,203.575806 239.076767,203.575806 241.293396,203.575806 
	C241.293396,199.795151 241.293396,196.382233 241.293396,192.798920 
	C245.052856,192.798920 248.301834,192.798920 251.871277,192.798920 
	C252.062576,196.573700 252.241623,200.106583 252.421387,203.653915 
	C254.745773,203.653915 256.503540,203.653915 258.761871,203.653915 
	C258.761871,197.761932 258.761871,192.154312 258.757629,185.568283 
M367.590149,186.954117 
	C366.155609,186.842468 364.721069,186.730820 362.837524,186.584213 
	C362.837524,182.793640 362.837524,179.374649 362.837524,175.846298 
	C360.617554,175.846298 358.893860,175.846298 357.148529,175.846298 
	C357.148529,185.298279 357.148529,194.383545 357.148529,203.641098 
	C359.163635,203.641098 360.872223,203.641098 363.198425,203.641098 
	C363.198425,199.752975 363.198425,196.203064 363.198425,192.745316 
	C367.087830,192.745316 370.350006,192.745316 374.266296,192.745316 
	C374.266296,196.603165 374.266296,200.145081 374.266296,203.686981 
	C374.736115,204.069443 375.205963,204.451889 375.675781,204.834335 
	C377.335358,203.682190 380.370667,202.599289 380.432709,201.366714 
	C380.856110,192.955475 380.654541,184.512787 380.654541,175.927216 
	C378.088501,175.927216 376.239563,175.927216 373.915649,175.927216 
	C373.915649,179.796814 373.915649,183.217102 373.915649,186.955185 
	C371.801636,186.955185 370.164459,186.955185 367.590149,186.954117 
M273.858215,162.990326 
	C279.466003,162.990326 285.073792,162.990326 290.733704,162.990326 
	C290.733704,160.947342 290.733704,159.502319 290.733704,157.566986 
	C286.447449,157.566986 282.364899,157.566986 278.207733,157.566986 
	C278.207733,155.381882 278.207733,153.693954 278.207733,151.652542 
	C282.229645,151.652542 285.840576,151.652542 289.692444,151.652542 
	C289.692444,149.867004 289.692444,148.439819 289.692444,146.476807 
	C285.815216,146.476807 282.072205,146.476807 278.124481,146.476807 
	C278.124481,144.232849 278.124481,142.526550 278.124481,140.281860 
	C282.529175,140.281860 286.592194,140.281860 290.723907,140.281860 
	C290.723907,138.313782 290.723907,136.887619 290.723907,135.262909 
	C284.257446,135.262909 278.036438,135.262909 271.390320,135.262909 
	C271.390320,144.141342 271.362610,152.746826 271.456543,161.350983 
	C271.462402,161.889999 272.420258,162.418610 273.858215,162.990326 
M309.606537,196.718140 
	C307.957520,190.798721 306.671112,184.737610 304.445831,179.043396 
	C303.748291,177.258560 300.575226,175.596893 298.440155,175.469131 
	C296.525269,175.354523 293.244232,177.003708 292.699585,178.601944 
	C289.928406,186.733505 287.850739,195.101395 285.518982,203.426834 
	C289.954315,205.070389 292.317963,203.685852 292.770172,199.433685 
	C293.265991,194.771469 296.721466,196.027145 299.528900,195.785767 
	C302.329315,195.545013 303.912567,196.462036 304.173157,199.504578 
	C304.556152,203.975937 307.144226,204.885422 311.265137,203.406174 
	C310.766846,201.325180 310.305328,199.397781 309.606537,196.718140 
M279.243958,198.023087 
	C276.306885,198.023087 273.369843,198.023087 270.071533,198.023087 
	C270.203339,195.744598 270.294373,194.171021 270.412994,192.120270 
	C274.515381,192.120270 278.235321,192.120270 282.288574,192.120270 
	C282.154327,190.184738 282.056488,188.774185 281.920380,186.811554 
	C277.876007,186.811554 274.135315,186.811554 270.091461,186.811554 
	C270.197479,184.628815 270.274658,183.040329 270.372375,181.029205 
	C274.793518,181.029205 278.884277,181.029205 283.475708,181.029205 
	C283.306885,179.013382 283.178284,177.477890 283.039276,175.817993 
	C276.524719,175.817993 270.441742,175.817993 264.256989,175.817993 
	C264.256989,185.240448 264.256989,194.327606 264.256989,203.696289 
	C270.612854,203.696289 276.696075,203.696289 282.938965,203.696289 
	C283.794037,200.823257 285.186310,197.889038 279.243958,198.023087 
M361.280243,160.982437 
	C361.840363,159.091446 362.400482,157.200439 362.928986,155.416275 
	C371.574890,154.593689 371.574890,154.593689 374.919098,162.727173 
	C376.683838,162.727173 378.431580,162.727173 380.441956,162.727173 
	C378.250122,154.482773 376.136749,146.622528 374.078369,138.747910 
	C373.246857,135.566864 371.099701,134.735229 368.071686,134.835983 
	C365.152710,134.933121 362.442230,134.784195 361.468262,138.529373 
	C359.389252,146.523987 357.096619,154.463074 354.566376,163.598679 
	C357.308929,162.820694 359.171478,162.292358 361.280243,160.982437 
M347.342529,134.911148 
	C335.757935,134.868927 333.333740,137.123962 333.041199,148.214233 
	C332.710968,160.734802 335.802856,163.569046 348.656616,163.105545 
	C352.509766,162.966599 353.651459,161.615311 352.474823,158.093292 
	C339.947266,157.234024 339.777771,157.236145 339.690887,150.300049 
	C339.654541,147.400162 339.554260,142.882370 341.163361,141.925323 
	C344.290710,140.065292 348.605011,140.200836 352.594940,139.479462 
	C354.028595,135.505905 351.565918,134.845825 347.342529,134.911148 
M347.213409,175.540268 
	C342.097565,175.540268 336.981750,175.540268 331.731262,175.540268 
	C331.731262,177.609787 331.731262,179.155273 331.731262,180.779984 
	C334.336487,180.971527 336.582031,181.136627 339.238403,181.331940 
	C339.238403,188.994904 339.238403,196.252426 339.238403,203.747101 
	C341.447266,203.747101 343.206299,203.747101 345.579041,203.747101 
	C345.579041,196.170731 345.579041,188.778946 345.579041,181.263947 
	C348.419037,181.072647 350.661774,180.921570 353.316132,180.742767 
	C353.234863,178.884262 353.167664,177.347763 353.088715,175.542267 
	C351.079987,175.542267 349.601379,175.542267 347.213409,175.540268 
M314.176178,183.594330 
	C314.176178,190.197159 314.176178,196.799973 314.176178,203.695709 
	C320.499512,203.695709 326.216614,203.695709 332.151367,203.695709 
	C332.151367,201.677200 332.151367,199.964218 332.151367,197.741394 
	C328.181610,197.741394 324.603516,197.741394 320.581726,197.741394 
	C320.581726,190.141296 320.581726,183.049606 320.581726,175.797516 
	C318.243530,175.797516 316.370575,175.797516 314.165466,175.797516 
	C314.165466,178.345718 314.165466,180.489288 314.176178,183.594330 
M383.739349,136.174728 
	C383.739349,144.979370 383.739349,153.784012 383.739349,162.688080 
	C389.864655,162.688080 395.612915,162.688080 401.513184,162.688080 
	C401.513184,160.966339 401.513184,159.543594 401.513184,157.663345 
	C397.663391,157.663345 394.052826,157.663345 389.897095,157.663345 
	C389.897095,149.967361 389.897095,142.712463 389.897095,134.940292 
	C387.563843,135.105759 385.809418,135.230164 383.739349,136.174728 
M322.823669,147.506927 
	C322.823669,152.587158 322.823669,157.667389 322.823669,162.698715 
	C325.237946,162.698715 326.972290,162.698715 328.670654,162.698715 
	C328.670654,153.345581 328.670654,144.301422 328.670654,135.298218 
	C326.587585,135.298218 324.854034,135.298218 322.823944,135.298218 
	C322.823944,139.252335 322.823944,142.883423 322.823669,147.506927 
z"/>
<path fill="#049DDD" opacity="1.000000" stroke="none" 
	d="
M157.876083,217.045654 
	C155.482056,221.055817 152.985611,224.739456 147.544220,225.004593 
	C136.536819,225.540924 130.990829,223.217667 131.685104,210.288315 
	C131.975967,204.871841 131.565445,199.417694 131.348907,193.134171 
	C131.208786,185.849380 130.889420,179.392715 131.277283,172.978806 
	C131.572540,168.096573 129.971603,166.212616 124.691971,167.189636 
	C118.733360,167.360718 113.245613,167.605392 107.757874,167.850067 
	C100.880264,164.290482 99.328705,158.392136 100.044151,151.197845 
	C100.644409,145.161819 104.108360,141.388901 110.279213,141.235825 
	C117.089539,141.066895 123.905670,141.131989 131.652283,141.083038 
	C140.857635,141.070923 149.129990,141.070923 157.864960,141.070923 
	C157.864960,138.673126 157.864960,136.881821 157.910690,134.619598 
	C157.661560,128.584946 157.366699,123.021187 157.071838,117.457428 
	C160.530090,110.887840 166.109894,109.167122 173.173370,109.755638 
	C178.210663,110.175346 181.742050,111.875732 183.084320,117.791466 
	C183.030930,133.499298 183.019577,148.362198 183.082977,163.224808 
	C183.088303,164.471252 183.596100,165.715546 184.205154,167.116806 
	C186.725876,167.203751 188.911911,167.134750 191.558136,167.068253 
	C197.137772,167.326721 202.257217,167.582687 207.376663,167.838654 
	C212.585617,168.880325 214.920074,172.285385 215.099152,177.369553 
	C215.181107,179.697052 215.235641,182.044174 215.034698,184.359161 
	C214.594116,189.434952 210.995361,192.942612 205.875931,193.078629 
	C198.723312,193.268677 191.564102,193.210159 183.621323,193.587936 
	C174.670380,193.917862 166.505829,193.917862 158.038864,193.917862 
	C158.038864,196.738327 158.038864,198.845505 158.020752,201.422470 
	C157.960464,206.943390 157.918274,211.994522 157.876083,217.045654 
M174.084885,169.419678 
	C175.935135,168.809402 177.785385,168.199112 180.144028,167.421143 
	C168.308243,164.070084 160.653442,156.945786 157.495758,145.101807 
	C154.416245,157.422897 146.653671,164.323898 133.919830,167.330841 
	C147.488037,170.228439 155.019180,177.775238 157.517059,191.652679 
	C159.838623,181.088181 164.383255,173.690308 174.084885,169.419678 
z"/>
<path fill="#0461C2" opacity="1.000000" stroke="none" 
	d="
M107.402885,167.858093 
	C113.245613,167.605392 118.733360,167.360718 124.643036,167.546570 
	C126.695778,176.298096 128.326584,184.619080 129.957382,192.940079 
	C122.983734,192.978363 115.997711,193.262436 109.043594,192.912491 
	C106.815102,192.800354 104.146248,191.518280 102.583038,189.898743 
	C97.095757,184.213730 99.856033,171.401459 107.402885,167.858093 
z"/>
<path fill="#035FC1" opacity="1.000000" stroke="none" 
	d="
M157.019409,117.061157 
	C157.366699,123.021187 157.661560,128.584946 157.525940,134.579849 
	C148.928635,137.556808 140.765533,140.125977 132.014893,139.013977 
	C131.934402,132.243668 131.650940,125.467697 131.839661,118.704895 
	C131.982651,113.580490 135.644867,110.046982 140.774078,109.955215 
	C147.059799,109.842766 154.154556,108.220711 157.019409,117.061157 
z"/>
<path fill="#0561C1" opacity="1.000000" stroke="none" 
	d="
M157.931915,217.400879 
	C157.918274,211.994522 157.960464,206.943390 158.346802,201.294144 
	C166.294678,195.623352 175.214615,196.414932 183.659943,195.091873 
	C183.705383,201.573700 183.966919,208.063263 183.735840,214.535217 
	C183.502335,221.074905 179.425323,224.623108 172.783783,224.953247 
	C166.480148,225.266586 160.672379,224.781754 157.931915,217.400879 
z"/>
<path fill="#0661C1" opacity="1.000000" stroke="none" 
	d="
M207.534241,167.500290 
	C202.257217,167.582687 197.137772,167.326721 191.394531,166.734528 
	C189.176422,159.729477 187.632614,153.047897 185.949646,146.401550 
	C185.565475,144.884354 184.700989,143.488815 184.033264,141.770966 
	C184.006149,141.326370 184.003326,141.148117 184.000488,140.969849 
	C190.156952,141.047028 196.313232,141.162704 202.469925,141.192459 
	C211.930466,141.238174 214.838715,144.372726 215.272430,153.650772 
	C215.570236,160.021393 213.622269,164.563156 207.534241,167.500290 
z"/>
<path fill="#21488E" opacity="1.000000" stroke="none" 
	d="
M240.788956,156.068695 
	C240.523163,158.482864 240.302811,160.459137 240.051239,162.715363 
	C238.142044,162.715363 236.379288,162.715363 233.832092,162.715363 
	C234.735641,153.629211 235.645828,144.476334 236.538666,135.498001 
	C241.586212,133.966187 244.461227,135.194214 245.768829,140.224747 
	C246.800964,144.195633 248.657593,147.952194 250.539291,152.815063 
	C252.362167,148.053452 254.153519,144.333221 255.193604,140.413666 
	C256.483673,135.551971 259.169708,133.921890 264.453369,135.514069 
	C265.331451,144.287033 266.234344,153.307785 267.174347,162.699402 
	C264.899963,162.699402 263.018616,162.699402 260.957245,162.699402 
	C260.439362,158.020340 259.934021,153.454514 259.428650,148.888687 
	C259.048309,148.821808 258.667938,148.754913 258.287598,148.688034 
	C256.851685,152.255981 255.584198,155.906967 253.888489,159.346848 
	C253.295258,160.550217 251.653351,161.944244 250.480225,161.953384 
	C249.327057,161.962387 247.666290,160.561417 247.093704,159.364990 
	C245.392838,155.811020 244.118118,152.053116 241.772766,148.319733 
	C241.459976,150.756760 241.147186,153.193787 240.788956,156.068695 
z"/>
<path fill="#234A90" opacity="1.000000" stroke="none" 
	d="
M310.281921,162.912140 
	C305.217346,162.957230 300.583435,162.957230 295.556580,162.957230 
	C295.556580,153.745468 295.556580,144.743134 295.556580,135.752075 
	C307.805359,132.828598 314.912872,134.696182 317.277374,141.424866 
	C320.510651,150.625763 317.755127,159.625931 310.281921,162.912140 
M311.949738,148.570801 
	C311.504852,140.735870 309.799561,139.368622 302.041748,140.674896 
	C302.041748,146.351959 302.041748,152.026886 302.041748,157.659515 
	C310.323853,158.105469 311.586914,157.000015 311.949738,148.570801 
z"/>
<path fill="#139FDA" opacity="1.000000" stroke="none" 
	d="
M258.759766,186.057495 
	C258.761871,192.154312 258.761871,197.761932 258.761871,203.653915 
	C256.503540,203.653915 254.745773,203.653915 252.421387,203.653915 
	C252.241623,200.106583 252.062576,196.573700 251.871277,192.798920 
	C248.301834,192.798920 245.052856,192.798920 241.293396,192.798920 
	C241.293396,196.382233 241.293396,199.795151 241.293396,203.575806 
	C239.076767,203.575806 237.361069,203.575806 235.267883,203.575806 
	C235.267883,194.376419 235.267883,185.190247 235.267883,175.760803 
	C237.163010,175.760803 238.896408,175.760803 241.138336,175.760803 
	C241.138336,179.464981 241.138336,182.882263 241.138336,186.608673 
	C244.872849,186.608673 248.111984,186.608673 251.877594,186.608673 
	C252.034302,183.129501 252.194214,179.579117 252.363205,175.827560 
	C254.510910,175.827560 256.386902,175.827560 258.757629,175.827560 
	C258.757629,179.331955 258.757629,182.450119 258.759766,186.057495 
z"/>
<path fill="#12A0DB" opacity="1.000000" stroke="none" 
	d="
M368.058716,186.954651 
	C370.164459,186.955185 371.801636,186.955185 373.915649,186.955185 
	C373.915649,183.217102 373.915649,179.796814 373.915649,175.927216 
	C376.239563,175.927216 378.088501,175.927216 380.654541,175.927216 
	C380.654541,184.512787 380.856110,192.955475 380.432709,201.366714 
	C380.370667,202.599289 377.335358,203.682190 375.675781,204.834335 
	C375.205963,204.451889 374.736115,204.069443 374.266296,203.686981 
	C374.266296,200.145081 374.266296,196.603165 374.266296,192.745316 
	C370.350006,192.745316 367.087830,192.745316 363.198425,192.745316 
	C363.198425,196.203064 363.198425,199.752975 363.198425,203.641098 
	C360.872223,203.641098 359.163635,203.641098 357.148529,203.641098 
	C357.148529,194.383545 357.148529,185.298279 357.148529,175.846298 
	C358.893860,175.846298 360.617554,175.846298 362.837524,175.846298 
	C362.837524,179.374649 362.837524,182.793640 362.837524,186.584213 
	C364.721069,186.730820 366.155609,186.842468 368.058716,186.954651 
z"/>
<path fill="#254C91" opacity="1.000000" stroke="none" 
	d="
M273.396729,162.971191 
	C272.420258,162.418610 271.462402,161.889999 271.456543,161.350983 
	C271.362610,152.746826 271.390320,144.141342 271.390320,135.262909 
	C278.036438,135.262909 284.257446,135.262909 290.723907,135.262909 
	C290.723907,136.887619 290.723907,138.313782 290.723907,140.281860 
	C286.592194,140.281860 282.529175,140.281860 278.124481,140.281860 
	C278.124481,142.526550 278.124481,144.232849 278.124481,146.476807 
	C282.072205,146.476807 285.815216,146.476807 289.692444,146.476807 
	C289.692444,148.439819 289.692444,149.867004 289.692444,151.652542 
	C285.840576,151.652542 282.229645,151.652542 278.207733,151.652542 
	C278.207733,153.693954 278.207733,155.381882 278.207733,157.566986 
	C282.364899,157.566986 286.447449,157.566986 290.733704,157.566986 
	C290.733704,159.502319 290.733704,160.947342 290.733704,162.990326 
	C285.073792,162.990326 279.466003,162.990326 273.396729,162.971191 
z"/>
<path fill="#139FDA" opacity="1.000000" stroke="none" 
	d="
M309.725189,197.094269 
	C310.305328,199.397781 310.766846,201.325180 311.265137,203.406174 
	C307.144226,204.885422 304.556152,203.975937 304.173157,199.504578 
	C303.912567,196.462036 302.329315,195.545013 299.528900,195.785767 
	C296.721466,196.027145 293.265991,194.771469 292.770172,199.433685 
	C292.317963,203.685852 289.954315,205.070389 285.518982,203.426834 
	C287.850739,195.101395 289.928406,186.733505 292.699585,178.601944 
	C293.244232,177.003708 296.525269,175.354523 298.440155,175.469131 
	C300.575226,175.596893 303.748291,177.258560 304.445831,179.043396 
	C306.671112,184.737610 307.957520,190.798721 309.725189,197.094269 
M296.691650,184.346680 
	C296.334473,186.341797 295.977264,188.336914 295.592682,190.485046 
	C297.964539,190.485046 299.638916,190.485046 301.843964,190.485046 
	C300.830627,186.913162 299.965149,183.862350 298.731964,179.515427 
	C297.710846,181.689346 297.278259,182.610275 296.691650,184.346680 
z"/>
<path fill="#0D9CD8" opacity="1.000000" stroke="none" 
	d="
M279.691467,198.019196 
	C285.186310,197.889038 283.794037,200.823257 282.938965,203.696289 
	C276.696075,203.696289 270.612854,203.696289 264.256989,203.696289 
	C264.256989,194.327606 264.256989,185.240448 264.256989,175.817993 
	C270.441742,175.817993 276.524719,175.817993 283.039276,175.817993 
	C283.178284,177.477890 283.306885,179.013382 283.475708,181.029205 
	C278.884277,181.029205 274.793518,181.029205 270.372375,181.029205 
	C270.274658,183.040329 270.197479,184.628815 270.091461,186.811554 
	C274.135315,186.811554 277.876007,186.811554 281.920380,186.811554 
	C282.056488,188.774185 282.154327,190.184738 282.288574,192.120270 
	C278.235321,192.120270 274.515381,192.120270 270.412994,192.120270 
	C270.294373,194.171021 270.203339,195.744598 270.071533,198.023087 
	C273.369843,198.023087 276.306885,198.023087 279.691467,198.019196 
z"/>
<path fill="#21488E" opacity="1.000000" stroke="none" 
	d="
M361.157104,161.373230 
	C359.171478,162.292358 357.308929,162.820694 354.566376,163.598679 
	C357.096619,154.463074 359.389252,146.523987 361.468262,138.529373 
	C362.442230,134.784195 365.152710,134.933121 368.071686,134.835983 
	C371.099701,134.735229 373.246857,135.566864 374.078369,138.747910 
	C376.136749,146.622528 378.250122,154.482773 380.441956,162.727173 
	C378.431580,162.727173 376.683838,162.727173 374.919098,162.727173 
	C371.574890,154.593689 371.574890,154.593689 362.928986,155.416275 
	C362.400482,157.200439 361.840363,159.091446 361.157104,161.373230 
M365.594757,149.927979 
	C367.286316,149.927979 368.977905,149.927979 371.086884,149.927979 
	C369.979187,146.134933 369.090790,143.092789 368.202393,140.050644 
	C367.734955,140.054642 367.267517,140.058624 366.800079,140.062622 
	C366.158875,143.189880 365.517670,146.317123 365.594757,149.927979 
z"/>
<path fill="#21488E" opacity="1.000000" stroke="none" 
	d="
M347.795197,134.925995 
	C351.565918,134.845825 354.028595,135.505905 352.594940,139.479462 
	C348.605011,140.200836 344.290710,140.065292 341.163361,141.925323 
	C339.554260,142.882370 339.654541,147.400162 339.690887,150.300049 
	C339.777771,157.236145 339.947266,157.234024 352.474823,158.093292 
	C353.651459,161.615311 352.509766,162.966599 348.656616,163.105545 
	C335.802856,163.569046 332.710968,160.734802 333.041199,148.214233 
	C333.333740,137.123962 335.757935,134.868927 347.795197,134.925995 
z"/>
<path fill="#0F9EDA" opacity="1.000000" stroke="none" 
	d="
M347.668091,175.541260 
	C349.601379,175.542267 351.079987,175.542267 353.088715,175.542267 
	C353.167664,177.347763 353.234863,178.884262 353.316132,180.742767 
	C350.661774,180.921570 348.419037,181.072647 345.579041,181.263947 
	C345.579041,188.778946 345.579041,196.170731 345.579041,203.747101 
	C343.206299,203.747101 341.447266,203.747101 339.238403,203.747101 
	C339.238403,196.252426 339.238403,188.994904 339.238403,181.331940 
	C336.582031,181.136627 334.336487,180.971527 331.731262,180.779984 
	C331.731262,179.155273 331.731262,177.609787 331.731262,175.540268 
	C336.981750,175.540268 342.097565,175.540268 347.668091,175.541260 
z"/>
<path fill="#19A1DA" opacity="1.000000" stroke="none" 
	d="
M314.170837,183.113586 
	C314.165466,180.489288 314.165466,178.345718 314.165466,175.797516 
	C316.370575,175.797516 318.243530,175.797516 320.581726,175.797516 
	C320.581726,183.049606 320.581726,190.141296 320.581726,197.741394 
	C324.603516,197.741394 328.181610,197.741394 332.151367,197.741394 
	C332.151367,199.964218 332.151367,201.677200 332.151367,203.695709 
	C326.216614,203.695709 320.499512,203.695709 314.176178,203.695709 
	C314.176178,196.799973 314.176178,190.197159 314.170837,183.113586 
z"/>
<path fill="#21488E" opacity="1.000000" stroke="none" 
	d="
M383.897156,135.764648 
	C385.809418,135.230164 387.563843,135.105759 389.897095,134.940292 
	C389.897095,142.712463 389.897095,149.967361 389.897095,157.663345 
	C394.052826,157.663345 397.663391,157.663345 401.513184,157.663345 
	C401.513184,159.543594 401.513184,160.966339 401.513184,162.688080 
	C395.612915,162.688080 389.864655,162.688080 383.739349,162.688080 
	C383.739349,153.784012 383.739349,144.979370 383.897156,135.764648 
z"/>
<path fill="#21488E" opacity="1.000000" stroke="none" 
	d="
M322.823792,147.010712 
	C322.823944,142.883423 322.823944,139.252335 322.823944,135.298218 
	C324.854034,135.298218 326.587585,135.298218 328.670654,135.298218 
	C328.670654,144.301422 328.670654,153.345581 328.670654,162.698715 
	C326.972290,162.698715 325.237946,162.698715 322.823669,162.698715 
	C322.823669,157.667389 322.823669,152.587158 322.823792,147.010712 
z"/>
<path fill="#022FA1" opacity="1.000000" stroke="none" 
	d="
M131.889343,139.323792 
	C140.765533,140.125977 148.928635,137.556808 157.480225,135.050751 
	C157.864960,136.881821 157.864960,138.673126 157.864960,141.070923 
	C149.129990,141.070923 140.857635,141.070923 132.091583,141.014435 
	C131.653183,140.516495 131.708481,140.075043 131.889343,139.323792 
z"/>
<path fill="#022FA1" opacity="1.000000" stroke="none" 
	d="
M183.749893,194.774750 
	C175.214615,196.414932 166.294678,195.623352 158.364899,200.824356 
	C158.038864,198.845505 158.038864,196.738327 158.038864,193.917862 
	C166.505829,193.917862 174.670380,193.917862 183.282837,193.862656 
	C183.767105,194.024170 183.803482,194.240906 183.749893,194.774750 
z"/>
<path fill="#022FA1" opacity="1.000000" stroke="none" 
	d="
M130.282501,193.067841 
	C128.326584,184.619080 126.695778,176.298096 125.113907,167.620148 
	C129.971603,166.212616 131.572540,168.096573 131.277283,172.978806 
	C130.889420,179.392715 131.208786,185.849380 131.263168,192.778870 
	C131.070755,193.245270 130.839188,193.220428 130.282501,193.067841 
z"/>
<path fill="#3BA1DC" opacity="1.000000" stroke="none" 
	d="
M183.960419,140.504669 
	C184.003326,141.148117 184.006149,141.326370 183.993988,142.234772 
	C183.942841,150.963547 183.906631,158.962189 183.870453,166.960846 
	C183.596100,165.715546 183.088303,164.471252 183.082977,163.224808 
	C183.019577,148.362198 183.030930,133.499298 183.109375,118.145081 
	C183.437485,125.115639 183.678909,132.577560 183.960419,140.504669 
z"/>
<path fill="#F2F9FC" opacity="1.000000" stroke="none" 
	d="
M173.757919,169.604721 
	C164.383255,173.690308 159.838623,181.088181 157.517059,191.652679 
	C155.019180,177.775238 147.488037,170.228439 133.919830,167.330841 
	C146.653671,164.323898 154.416245,157.422897 157.495758,145.101807 
	C160.653442,156.945786 168.308243,164.070084 180.144028,167.421143 
	C177.785385,168.199112 175.935135,168.809402 173.757919,169.604721 
M159.101639,161.069275 
	C155.720947,160.582169 152.841293,161.713043 151.973770,164.999863 
	C151.462570,166.936691 151.920074,169.761490 153.093277,171.320435 
	C154.124084,172.690186 157.205261,173.897461 158.580246,173.308212 
	C160.711487,172.394882 163.443222,169.971298 163.560852,168.044006 
	C163.693237,165.874863 161.208633,163.545975 159.101639,161.069275 
z"/>
<path fill="#022FA1" opacity="1.000000" stroke="none" 
	d="
M184.205139,167.116806 
	C183.906631,158.962189 183.942841,150.963547 184.018295,142.501083 
	C184.700989,143.488815 185.565475,144.884354 185.949646,146.401550 
	C187.632614,153.047897 189.176422,159.729477 190.934326,166.732025 
	C188.911911,167.134750 186.725876,167.203751 184.205139,167.116806 
z"/>
<path fill="#F2F9FC" opacity="1.000000" stroke="none" 
	d="
M311.949341,148.998978 
	C311.586914,157.000015 310.323853,158.105469 302.041748,157.659515 
	C302.041748,152.026886 302.041748,146.351959 302.041748,140.674896 
	C309.799561,139.368622 311.504852,140.735870 311.949341,148.998978 
z"/>
<path fill="#F2F9FC" opacity="1.000000" stroke="none" 
	d="
M296.768677,183.938934 
	C297.278259,182.610275 297.710846,181.689346 298.731964,179.515427 
	C299.965149,183.862350 300.830627,186.913162 301.843964,190.485046 
	C299.638916,190.485046 297.964539,190.485046 295.592682,190.485046 
	C295.977264,188.336914 296.334473,186.341797 296.768677,183.938934 
z"/>
<path fill="#F2F9FC" opacity="1.000000" stroke="none" 
	d="
M365.235596,149.686188 
	C365.517670,146.317123 366.158875,143.189880 366.800079,140.062622 
	C367.267517,140.058624 367.734955,140.054642 368.202393,140.050644 
	C369.090790,143.092789 369.979187,146.134933 371.086884,149.927979 
	C368.977905,149.927979 367.286316,149.927979 365.235596,149.686188 
z"/>
<path fill="#12A0DB" opacity="1.000000" stroke="none" 
	d="
M159.482025,161.177917 
	C161.208633,163.545975 163.693237,165.874863 163.560852,168.044006 
	C163.443222,169.971298 160.711487,172.394882 158.580246,173.308212 
	C157.205261,173.897461 154.124084,172.690186 153.093277,171.320435 
	C151.920074,169.761490 151.462570,166.936691 151.973770,164.999863 
	C152.841293,161.713043 155.720947,160.582169 159.482025,161.177917 
z"/>
</svg>